<?xml version="1.0" encoding="UTF-8" standalone="no"?>
<svg
   xmlns:dc="http://purl.org/dc/elements/1.1/"
   xmlns:cc="http://creativecommons.org/ns#"
   xmlns:rdf="http://www.w3.org/1999/02/22-rdf-syntax-ns#"
   xmlns:svg="http://www.w3.org/2000/svg"
   xmlns="http://www.w3.org/2000/svg"
   xmlns:sodipodi="http://sodipodi.sourceforge.net/DTD/sodipodi-0.dtd"
   xmlns:inkscape="http://www.inkscape.org/namespaces/inkscape"
   width="2206.5095"
   height="1963.1676"
   viewBox="0 0 225.94657 201.03675"
   preserveAspectRatio="xMinYMin meet"
   version="1.1"
   id="svg32557"
   sodipodi:docname="react.svg"
   inkscape:version="0.92.2 (5c3e80d, 2017-08-06)">
  <metadata
     id="metadata32563">
    <rdf:RDF>
      <cc:Work
         rdf:about="">
        <dc:format>image/svg+xml</dc:format>
        <dc:type
           rdf:resource="http://purl.org/dc/dcmitype/StillImage" />
        <dc:title></dc:title>
      </cc:Work>
    </rdf:RDF>
  </metadata>
  <defs
     id="defs32561" />
  <sodipodi:namedview
     pagecolor="#ffffff"
     bordercolor="#666666"
     borderopacity="1"
     objecttolerance="10"
     gridtolerance="10"
     guidetolerance="10"
     inkscape:pageopacity="0"
     inkscape:pageshadow="2"
     inkscape:window-width="2560"
     inkscape:window-height="1017"
     id="namedview32559"
     showgrid="true"
     showborder="false"
     fit-margin-top="0"
     fit-margin-left="0"
     fit-margin-right="0"
     fit-margin-bottom="0"
     inkscape:zoom="0.21015138"
     inkscape:cx="2463.8128"
     inkscape:cy="446.08662"
     inkscape:window-x="-8"
     inkscape:window-y="-8"
     inkscape:window-maximized="1"
     inkscape:current-layer="svg32557">
    <inkscape:grid
       type="xygrid"
       id="grid33108"
       originx="-15.242398"
       originy="-14.448711" />
  </sodipodi:namedview>
  <g
     id="g33123"
     transform="translate(-15.243035,-14.514539)">
    <path
       id="path32551"
       d="m 174.35628,14.515205 c -11.30724,-0.0802 -25.8018,7.083576 -40.4043,19.790826 a 151.13599,151.13599 0 0 0 -5.62602,5.163015 137.573,137.573 0 0 0 -3.74397,-3.458144 C 104.177,17.892903 83.723978,10.258924 71.442979,17.367924 c -11.776,6.817 -15.264029,27.059986 -10.30703,52.389985 a 150.91,150.91 0 0 0 1.67007,7.484112 c -2.894,0.821999 -5.688949,1.697909 -8.362949,2.62991 -23.921999,8.339999 -39.200035,21.412059 -39.200035,34.970059 0,14.00399 16.399924,28.04993 41.317924,36.56592 a 128.43999,128.43999 0 0 0 6.110054,1.91008 147.813,147.813 0 0 0 -1.775074,8.06694 c -4.726,24.88999 -1.034953,44.65315 10.710047,51.42814 12.130999,6.995 32.490984,-0.19513 52.316984,-17.52513 1.567,-1.37 3.13999,-2.82298 4.71499,-4.34598 a 148.33999,148.33999 0 0 0 6.10806,5.57303 c 19.204,16.525 38.16988,23.19809 49.90487,16.40508 12.12001,-7.01599 16.05807,-28.24705 10.94406,-54.07804 -0.39,-1.973 -0.84505,-3.98805 -1.35505,-6.04006 1.43,-0.422 2.83318,-0.85806 4.20218,-1.31206 25.904,-8.582 42.75697,-22.45693 42.75697,-36.64792 0,-13.607 -15.77007,-26.767069 -40.17407,-35.168068 a 151.364,151.364 0 0 0 -7.2739,-2.291896 137.5,137.5 0 0 0 1.12385,-4.961006 c 5.506,-26.727999 1.90597,-48.260109 -10.38804,-55.348108 -2.94675,-1.6995 -6.36154,-2.530972 -10.13061,-2.557707 z m -0.008,9.631002 c 2.08136,0.02986 3.87462,0.45665 5.31762,1.288854 7.56601,4.363999 10.50884,21.960878 5.75484,45.037877 a 127.52499,127.52499 0 0 1 -1.01584,4.491988 c -9.374,-2.163 -19.55406,-3.772999 -30.21206,-4.772999 -6.209,-8.840999 -12.64199,-16.879995 -19.1,-23.837994 a 141.92,141.92 0 0 1 5.19602,-4.765999 c 13.29346,-11.569031 25.89409,-17.55887 34.05942,-17.441727 z m -92.398653,0.213009 c 8.716812,-0.09029 22.182773,6.404272 36.222113,18.869786 1.12599,1 2.25714,2.046931 3.39014,3.129931 -6.564,7.049 -13.051,15.073994 -19.248,23.819993 -10.627002,0.985 -20.800061,2.566996 -30.152061,4.685996 a 141.52499,141.52499 0 0 1 -1.553064,-6.961891 v 0.001 c -4.247,-21.702999 -1.426964,-38.073959 5.670036,-42.181959 1.535625,-0.888875 3.448904,-1.339843 5.670836,-1.362856 z m 46.379143,28.897805 c 4.45199,4.823 8.91095,10.209069 13.29694,16.052069 a 284.24499,284.24499 0 0 0 -26.7059,-0.006 c 4.39,-5.789 8.88695,-11.16707 13.40896,-16.046069 z m -0.10702,25.387058 c 6.99601,0 13.89506,0.267833 20.61306,0.779833 a 290.70399,290.70399 0 0 1 10.88706,17.383125 316.41799,316.41799 0 0 1 9.74101,18.129963 290.80599,290.80599 0 0 1 -9.70901,18.28995 h -0.001 a 316.47799,316.47799 0 0 1 -10.84005,17.49014 c -6.704,0.47899 -13.63206,0.72582 -20.69206,0.72582 -7.03101,0 -13.87085,-0.21882 -20.45785,-0.64582 A 273.79799,273.79799 0 0 1 96.720033,133.27996 271.33399,271.33399 0 0 1 87.080031,115.074 a 273.86399,273.86399 0 0 1 9.611,-18.215962 v 0.002 A 271.25198,271.25198 0 0 1 107.64709,79.417911 c 6.72,-0.508 13.60986,-0.773832 20.57485,-0.773832 z m -32.967988,2.008884 a 283.78998,283.78998 0 0 0 -6.926889,11.384075 285.23999,285.23999 0 0 0 -6.378066,11.684892 c -2.811,-6.667005 -5.2161,-13.22202 -7.180099,-19.55202 6.446999,-1.443 13.322054,-2.621947 20.485054,-3.516947 z m 65.950948,0.018 c 7.21,0.91 14.11706,2.11995 20.60306,3.60095 -1.94699,6.241 -4.3739,12.767011 -7.2319,19.457007 A 336.41998,336.41998 0 0 0 168.0758,91.971034 306.98199,306.98199 0 0 0 161.20471,80.670963 Z m -95.806993,5.869044 c 2.827999,9.197001 6.537059,18.812993 11.013059,28.536993 -4.533999,9.869 -8.296065,19.63801 -11.150065,28.943 a 118.908,118.908 0 0 1 -5.577832,-1.74607 c -11.018,-3.766 -20.1171,-8.65998 -26.3541,-13.99999 -5.603999,-4.79999 -8.433951,-9.56495 -8.433951,-13.43195 0,-8.227 12.266966,-18.722081 32.725965,-25.855081 a 139.27599,139.27599 0 0 1 7.776924,-2.446902 z m 125.768043,0.142006 c 2.31101,0.670001 4.55508,1.374888 6.71708,2.119889 20.91,7.196999 33.664,17.840078 33.664,26.040088 0,8.735 -13.7751,20.07495 -36.1401,27.48595 h -0.001 c -1.23499,0.409 -2.50295,0.80404 -3.79496,1.18705 -2.85999,-9.053 -6.72007,-18.68 -11.44207,-28.625 4.507,-9.71 8.21706,-19.212977 10.99706,-28.207977 z m -16.49788,39.395037 c 3.01999,6.88401 5.56591,13.54403 7.58791,19.87703 -6.552,1.495 -13.62508,2.69896 -21.07808,3.59296 a 337.53699,337.53699 0 0 0 6.93709,-11.49809 306.63198,306.63198 0 0 0 6.55308,-11.9719 z m -92.708073,0.34702 a 283.49398,283.49398 0 0 0 6.406067,11.69189 285.26999,285.26999 0 0 0 7.093896,11.60408 c -7.399999,-0.82599 -14.379069,-1.94514 -20.824068,-3.34814 1.995,-6.44199 4.453105,-13.13783 7.324105,-19.94783 z m 102.942893,28.827 c 0.46,1.86001 0.87005,3.68284 1.22305,5.46583 2.261,11.42201 2.58405,21.74905 1.08604,29.82205 -1.346,7.254 -4.0521,12.08998 -7.3981,14.02698 -7.121,4.122 -22.34982,-1.23584 -38.77182,-15.36785 -1.883,-1.61999 -3.78003,-3.35001 -5.68204,-5.18 6.36701,-6.96401 12.72999,-15.06001 18.93999,-24.05001 10.92401,-0.96899 21.24388,-2.554 30.60288,-4.717 z m -112.872907,0.43202 c 9.255,2.047 19.50007,3.51998 30.450067,4.40798 6.251,8.797 12.79801,16.88301 19.39601,23.96401 a 118.86299,118.86299 0 0 1 -4.30517,3.96396 c -8.76701,7.664 -17.55186,13.09986 -25.293862,15.83486 h -0.001 c -6.956999,2.457 -12.49806,2.52703 -15.847061,0.59602 -7.128,-4.11 -10.090051,-19.97991 -6.049052,-41.26492 a 138.507,138.507 0 0 1 1.650068,-7.50191 z m 69.830907,5.10882 c -4.39999,5.98 -8.84294,11.44808 -13.26495,16.31707 -4.575,-4.937 -9.13797,-10.39707 -13.59496,-16.27007 4.326,0.16999 8.73695,0.25601 13.21995,0.25601 4.606,0 9.15897,-0.10302 13.63996,-0.30301 z"
       style="fill:#53c1de;stroke-width:1"
       inkscape:connector-curvature="0" />
    <path
       id="path32555"
       d="m 128.221,94.665 c 11.144,0 20.177,9.034 20.177,20.177 0,11.144 -9.033,20.178 -20.177,20.178 -11.143,0 -20.177,-9.034 -20.177,-20.178 0,-11.143 9.034,-20.177 20.177,-20.177"
       inkscape:connector-curvature="0"
       style="fill:#53c1de" />
  </g>
</svg>
